<svg xmlns="http://www.w3.org/2000/svg" width="28.551" height="27.844" viewBox="0 0 28.551 27.844">
  <path d="M14.276.445a14.276,14.276,0,0,0-4.515,27.82c.714.134.976-.307.976-.686,0-.339-.012-1.237-.018-2.427-3.971.861-4.809-1.915-4.809-1.915a3.784,3.784,0,0,0-1.588-2.088c-1.293-.885.1-.867.1-.867a2.993,2.993,0,0,1,2.187,1.47,3.042,3.042,0,0,0,4.158,1.187,3.044,3.044,0,0,1,.9-1.909c-3.17-.357-6.5-1.585-6.5-7.055a5.507,5.507,0,0,1,1.469-3.831,5.076,5.076,0,0,1,.125-3.778s1.2-.383,3.926,1.463a13.459,13.459,0,0,1,7.138,0c2.712-1.846,3.908-1.463,3.908-1.463a5.216,5.216,0,0,1,.143,3.778,5.53,5.53,0,0,1,1.463,3.831c0,5.484-3.337,6.692-6.513,7.043a3.418,3.418,0,0,1,.964,2.641c0,1.911-.018,3.445-.018,3.909,0,.375.25.821.981.678A14.258,14.258,0,0,0,14.276.445" transform="translate(0 -0.445)" fill="#fff"/>
</svg>
