<svg xmlns="http://www.w3.org/2000/svg" width="547.5" height="280.101" viewBox="0 0 547.5 280.101"  >
  <g transform="translate(756.75 -34)">
    <g transform="translate(-756.754 34)">
      <path d="M336.468,96.906l-2.361,3.147-1.573,1.574-3.147,1.73-.473,1.416s-1.259,1.259-1.1,2.046a14.906,14.906,0,0,1,.158,2.2,41.245,41.245,0,0,1-3.148,2.675,15.351,15.351,0,0,0-2.2,2.046A8.987,8.987,0,0,1,321.361,115a9.5,9.5,0,0,0-1.888,2.2c-.63.945-1.259,1.573-1.574,2.045a9.928,9.928,0,0,0-1.731,3.3,17.722,17.722,0,0,1-1.731,3.777l-.315.787c.158,2.676.157,3.148.473,4.092s.63.629.315,2.675a25.84,25.84,0,0,1-.629,3.777c-.315.943-1.259,2.674-1.573,3.462s.629,2.2.629,2.2.473,2.046.157,2.518.157,1.416.157,1.416a18.329,18.329,0,0,1,2.518,1.731,10.661,10.661,0,0,1,1.888,2.046c.158.473,1.416,2.676,1.574,3.148a25.711,25.711,0,0,0,1.731,2.675c.315.473,1.888,2.2,1.888,2.2a22.229,22.229,0,0,1,2.518,2.2c.472.629,1.888.944,2.36,1.416s1.574.314,2.2.787,1.888-.315,2.518,0,2.361-.315,2.833-.629,1.573-1.416,2.36-.945,1.258,0,1.888.157,1.573-.629,2.2-.629,2.2-.63,2.675-.63,2.046-.945,2.676-.945,1.416-.628,2.2-.314.472-.629,1.888-.157,1.888,0,2.36.471,1.1,0,1.574.631,1.258,1.1,1.416,1.73,1.1,1.26,1.1,1.26l.945.157s1.26-.944,1.574-.314,1.731.473,1.731.473l1.416,1.573.473.629a11.238,11.238,0,0,1,.787,3.462c-.157.944-.157,2.99-.629,3.462a7.345,7.345,0,0,0-.787,2.518s-.63.629.787,1.888a21.635,21.635,0,0,1,2.833,2.989,10.366,10.366,0,0,1,1.888,3.463,10.817,10.817,0,0,0,1.1,3.147c.629,1.417,1.416,1.574,1.573,3.148s.472,1.574.315,2.674-.629,1.259-.157,2.046,1.1,2.2.945,2.676-.473,2.518-.473,2.518l-.315.945-1.416,2.676-.945,1.415a8.945,8.945,0,0,0-.787,3.777c.157,1.574-.787,1.573.472,3.146a29.49,29.49,0,0,1,2.675,4.722,12.649,12.649,0,0,1,1.416,3.776c.158.945.787,1.26,1.1,2.518a10.65,10.65,0,0,1,.472,2.675c0,.787-.158,2.833.158,3.3a11.841,11.841,0,0,1,.629,2.518c.157.63-.473.787.472,1.889s1.574,1.73,2.2,2.518a3.825,3.825,0,0,1,.945,1.574,13.42,13.42,0,0,1,1.259,2.675,23.647,23.647,0,0,0,.787,4.406c.472,1.1,1.1,2.2,1.1,2.2s1.732,1.1,2.361.944,1.888-1.572,2.833-1.1,1.731,0,2.518,0,1.574-.945,2.361-.945,1.888-1.259,2.518-.944,1.415-.316,2.2-1.1,1.259-1.415,2.675-2.674,1.259-1.26,2.2-2.046,1.889-2.518,2.99-2.833,1.416-1.415,1.73-2.2a7.08,7.08,0,0,1,.945-1.889c.473-.629.157.159.945-1.888a5.926,5.926,0,0,1,2.519-3.3c.787-.472,1.258-1.416,1.73-1.574s1.259.472.945-.945,0-3.462-.314-3.933-.788,1.1-.63-1.261A10.688,10.688,0,0,1,415,214.3a27.045,27.045,0,0,1,3.148-3.462c.787-.472.944-.944,2.046-1.574s3.462-2.2,3.462-2.99.945-2.833.945-3.306a28.429,28.429,0,0,0-.314-3.62c-.315-2.674.314-2.046-.63-4.563s-1.1-5.665-1.731-6.452-.315-2.834-.315-3.462a8.54,8.54,0,0,1,1.574-2.832c.472-.63,2.518-3.148,2.518-3.148s3.147-3.619,4.249-5.349a19.128,19.128,0,0,1,2.99-3.934,19.433,19.433,0,0,0,3.777-3.62c1.1-1.573,3.3-4.563,3.463-5.036a14.515,14.515,0,0,1,1.415-2.045,13.388,13.388,0,0,0,2.046-3.148c.314-1.1,1.887-7.239,1.572-6.924a12.144,12.144,0,0,1-2.832.787c-.629.158.945.787-3.62.473a19.716,19.716,0,0,0-6.923.472c-1.417-.315-2.518,1.258-2.991-.945a14.606,14.606,0,0,0-1.73-5.035c-.945-1.574-1.575-2.2-2.99-4.249s-1.26-1.1-2.519-2.674-1.574-1.1-2.36-3.148-1.416-1.258-2.36-4.091-1.574-3.148-2.046-4.721-1.1-2.046-1.417-3.462a61.858,61.858,0,0,0-4.406-9.128,11.541,11.541,0,0,1-1.1-2.518,12.761,12.761,0,0,0,2.361,2.046,8.335,8.335,0,0,1,1.731-.473c.472,0,2.36,1.732,2.36,2.36s3.306,3.62,4.092,5.823,1.733,3.777,1.888,4.406a29.259,29.259,0,0,0,2.361,4.092c.629.945,2.674,2.832,2.989,3.777S429,136.719,429,138.765s1.415,4.721,1.573,5.35,2.99,1.417,2.99,1.417l3.778-.945s5.665-3.62,6.294-3.62a51.741,51.741,0,0,0,5.666-2.36s2.045-1.888,3.461-2.989a12.149,12.149,0,0,0,3.306-4.092c.314-.945.944-1.1,2.2-2.518s2.99-2.832,1.889-3.777-1.732-.629-3.3-2.2a8.812,8.812,0,0,1-2.518-3.3c-1.1-2.045.157-4.406-2.2-2.045s-1.416,2.99-3.777,3.463-3.3,2.045-4.406.471-2.2-.629-2.833-2.99-1.1-2.518-1.258-3.462,0-.945-1.259-3.306-.315-5.98.472-3.934,2.046,2.36,4.092,3.777,2.99,2.518,4.878,2.676,3.462,0,3.777.314.629-.157,1.417.157,1.1-.471,1.416.787,2.046,1.416,2.832,2.2.787.473,2.834.787a39.3,39.3,0,0,0,4.879.315l2.989-.158,3.462.314a15.207,15.207,0,0,0,3.148,1.416c.629,0,.787,1.732,2.36,2.676a8.439,8.439,0,0,1,2.832,2.2c.946,1.1.787,1.574,2.046,2.675s3.306-.157,3.621-.628,1.887-1.259,1.574,0,1.572.786,1.1,3.777-.787,2.2,0,4.249,4.249,8.34,4.407,10.229,1.1,1.259,1.258,2.991,1.1,2.36,1.1,3.619,1.1,1.573,1.259,2.518,1.889.157,2.361,0a22.229,22.229,0,0,0,2.675-2.2s.946-.314.787-1.888a26.92,26.92,0,0,1,0-3.619c0-2.36-.944-2.36-.472-4.72s1.73-3.778,2.046-4.879,1.574-2.99,2.2-3.148,4.092-1.888,4.879-2.99a32.862,32.862,0,0,1,3.3-3.619c1.258-1.258,3.462-2.832,3.934-2.36s.315.315,1.1.315,2.2.63,3.3.787,3.306,2.832,3.778,4.249.157,1.1,1.888,3.148,3.3.786,3.3,3.3,0,2.36.787,3.3,1.73-1.731,2.674-1.416,1.1-.315,1.888,2.2,1.258,2.518,1.417,5.036-.158.157-.158,2.2a17.407,17.407,0,0,0,.158,4.091c.314,1.89,1.414,2.519,1.258,2.834a11.439,11.439,0,0,0,.629-4.564c-.313-1.888,0-4.563.787-5.349s1.575-1.574,2.2.472.945.472,2.36,2.832,2.676,1.888,2.833,2.99.946,1.26,2.046,2.2,2.046-.157,3.3-1.1,4.721-4.407,4.879-5.823,1.573-1.1-.945-4.72-2.518-4.879-5.193-7.082-4.248-2.36-2.2-5.193,2.99-4.721,4.249-3.933,3.461.629,3.461,3.777-.629,6.609,1.574,2.832,3.306-5.98,2.675-5.349,1.417-1.259,1.417-1.259.158-1.416,2.834-2.046a17.542,17.542,0,0,0,4.406-1.416,14.747,14.747,0,0,0,4.091-5.036c.472-1.416,1.731-3.934,1.417-5.035s-1.889-6.452-2.2-6.3-.157.158-2.2-2.045-3.463-3.777-3.778-4.721-1.1-1.1-.158-2.36,1.417-1.1,1.575-2.2,1.415-2.046-.945-1.258-.629.315-2.675.158-7.4,1.1-4.72-2.2,3.46-5.35,3.933-5.35,2.834-2.676,2.99-.158,1.1,1.888,1.259,3.462,3.3-1.73,3.3-1.73a4.927,4.927,0,0,1,1.888,1.1c.787.787.787,3.3.787,3.3s-.629-.787,1.1.472,3.619.629,3.619,3.3,0,2.833,1.1,3.462a2.639,2.639,0,0,0,3.148-.472,19.141,19.141,0,0,0,2.517-3.62s.157-1.1-2.36-2.676a48.609,48.609,0,0,1-5.035-3.462c-.945-.787-.63-3.147.313-4.092s1.417-1.416,1.1-2.675.473-2.2,2.833-2.046,2.832-.157,2.832-.157.473.314.473-.63,2.989-5.351,2.2-5.351.159-1.1-.315-2.832,1.574-4.406-.157-5.665a9.621,9.621,0,0,1-3.3-3.777c-1.1-1.889-.945-2.2-5.036-2.676s-5.98.945-6.924-.314-1.416,1.888-2.045-1.889a9.637,9.637,0,0,1,.945-6.3s2.518-1.573,3.146-2.675,3.147-1.574,5.195-.787,5.035.629,7.554,1.1,2.36,2.045,3.62,0,0-2.99.944-4.092,2.046-2.833,2.832-1.732,2.362,2.2,3.622.787,1.73-1.573,1.73-1.573l.628.63s1.417-.788,1.417.628,1.417,2.991.63,4.092-1.888.945-1.888,3.62,0,2.2,1.73,4.407,2.833.314,3.148,2.675.629,1.889,2.361,3.462a32.571,32.571,0,0,0,2.675,2.518c1.259.945,1.889,1.889,1.889.315a30.23,30.23,0,0,0,0-3.777c-.159-1.416,1.259-2.518.313-4.879s-.157-2.2-2.045-3.934-3.148.315-3.776-2.2,2.989-3.62,3.934-3.934,2.359-2.2,2.674-.944-2.36,5.823,2.2.944,2.518-2.832,2.518-2.832,2.36-.315,2.832,0,1.733-1.416,1.258-1.258S618.478,39,618.478,39l-3.306-1.888a3.174,3.174,0,0,1,1.889-.629c.787.157.945-1.574,1.733-1.732a26.774,26.774,0,0,1,7.239,1.732c1.1.629,5.035.787,4.562.472s-2.989-2.2-3.147-2.833-5.665-1.888-7.4-1.731-3.3.629-4.721.157-3.462-1.731-4.564-1.731S595.818,28.14,595.189,28.3s-1.575,3.147-2.046,2.675-1.258-.473-3.463-1.1a48.478,48.478,0,0,0-9.128-1.416c-3.933-.315-6.608.315-7.71-.945s-3.462-.787-6.137-.945-5.823,0-7.239,0a52.047,52.047,0,0,1-5.507-.315c-.787-.158-1.731-1.259-2.675-1.416a21,21,0,0,0-2.676-.787c-1.888-.315-1.731-2.36-2.36-.63s-.315,1.259-1.259,1.888S543.1,27.2,542.47,27.2s-3.146.157-3.62-.157a4.911,4.911,0,0,0-2.833-.629,14.8,14.8,0,0,1-3.62-.158c-2.046-.315-3.62-.158-5.508-1.1s-1.888-1.574-3.462-1.416-1.572-.315-3.777-.315-4.877,1.259-6.294,1.416a16.513,16.513,0,0,1-5.665-.63c-1.1-.472-1.417-1.573-5.509-1.1s-6.452.473-5.665-.787a8.408,8.408,0,0,1,2.2-2.675c.473-.157,1.573-.944.786-1.258a9.356,9.356,0,0,0-3.461-.945c-1.889-.157-1.733.629-4.564.315s1.574-1.1-4.248-.944a61.367,61.367,0,0,0-7.868.629c-.63,0-1.417-1.258-2.99.629a9.039,9.039,0,0,1-6.924,3.147c-3.147.158-3.3-.315-6.294.787s-4.879-.315-4.249,2.2,1.416,3.462,1.416,3.934-1.416,3.62-3.147,1.731-4.879-9.285-3.463-4.249,4.563,6.767,1.574,7.554-2.676-.315-3.148-.63,0-2.518-.157-3.777a4.215,4.215,0,0,0-1.1-2.675c-.629-.63-.473-1.574-1.731-1.888s-.157-.945-2.2-.945-3.776-1.259-3.3,1.574.943.945,2.2,3.62,3.62.787,1.889,2.675-6.295,1.259-7.4.473-.787.315-2.834-1.1-1.415-2.518-3.775-1.416-3.148,3.148-4.092,2.36-3.147,1.1-3.934.158-3.935-.945-4.563,0-2.518.787-5.193,2.046-1.889.157-5.193,2.832-5.194,4.878-6.295,3.147-7.082-4.721-4.721-5.193,3.462-1.416,4.721-.315,3.306.787,3.619,0,1.732-1.574-.157-2.518-2.046-.315-5.035-1.416,0-.787-4.092-1.416a65.893,65.893,0,0,1-6.924-1.258c-1.1-.315-2.675,0-4.248-.157a18.651,18.651,0,0,0-4.092-.315c-1.416.157-2.2-.157-4.091,1.259s-3.306,2.046-4.564,3.147-4.563,3.3-5.507,4.092-4.249,3.3-4.564,4.249.315,1.731-.945,2.36a10.753,10.753,0,0,1-3.462.787c-.945.157,0-1.416-.945.157s-.629,7.239.157,6.452.315-3.3,3.777-.943,5.666,2.045,5.508,4.248,2.36,2.046,2.675,2.518,1.888-.63,1.888-.63,3.462-2.2,3.462-3.3,2.2-3.62,2.2-3.62a2.91,2.91,0,0,1-1.574-2.36c0-1.573.473-2.046.787-3.62s-1.731,0,2.99-2.99,5.035-.943,5.035-.943.629.629-.158,1.573-2.2,3.463-2.518,3.777,1.417,2.833,2.2,2.833,2.361-.63,3.306-.473,2.518-.471,2.99-.157,1.574,1.258.787,2.046-2.518,1.73-3.776,1.416-3.148-2.518-2.046.629-.157,3.934-1.1,3.777-2.99-1.73-2.675.63a3.926,3.926,0,0,1-2.518,3.933,12.178,12.178,0,0,1-1.416-.157s-1.417-.158-2.2-.158a4.879,4.879,0,0,0-2.833,1.416c-.473.629-1.1.158-1.888.158s0-.945-1.574-1.259-2.518-.629-3.462,0-2.36.944-2.99.472.315-1.575-.945-.944-2.2,2.36-2.675,2.518,1.417,0-.472.157a11.7,11.7,0,0,0-3.62.945c-.945.315.315,2.2-1.416,2.832s-.471-.787-2.2.629-2.046,2.676-2.675,2.833-.472.472-1.888.629a9.939,9.939,0,0,0-2.046.472c-.787.157.158.473-1.573.157s-2.99.315-2.676.945,6.137,2.36,1.731,2.2-2.99.629-2.046,1.258,1.416,1.258,1.888,1.416,1.258,2.046,1.258,2.046,1.259-.158.473.944.315,1.416-.473,2.833-.787.472-1.416.787-1.574,1.416-3.306.472a11.121,11.121,0,0,0-5.035-1.573c-2.046-.158-.63-.472-2.046.629a3.83,3.83,0,0,0-1.573,3.777c.157,1.416.315,3.3-.158,4.249a4.629,4.629,0,0,0-.158,3.3,3.447,3.447,0,0,0,1.26,2.046s2.2.314,2.675.472,1.417-.315,2.675.471,2.518,1.1,3.3.158,3.934-2.046,4.879-2.99,1.573-1.258,1.1-2.2.945-3.3,1.731-3.777a13.671,13.671,0,0,1,2.518-.945l1.888-2.832s1.574-1.732,2.36-1.574,5.193,1.732,4.879-.314.315-2.676.787-1.889,1.731.472,1.731.472a.993.993,0,0,1,1.1.158c.472.471,1.1,2.518,2.046,2.99s1.731.945,2.361,1.258,1.259,0,2.518,1.1,2.518,1.732,2.674,2.2a7.715,7.715,0,0,0,1.26,1.574s1.1.315.787.945A9.134,9.134,0,0,1,373.3,92.03c-.787.315-2.832-.315-2.046.315s1.888,1.416,2.36.944,3.462-3.62,3.462-3.62-.157.157,0-.787,0-2.045.787-1.573,1.259,1.1,1.574.473.629-.315-.158-.787-2.675-3.148-3.62-3.3a15.1,15.1,0,0,1-3.306-1.732s-.471-.472-1.573-1.73-1.416-.945-1.732-2.046-1.259-2.518.473-2.2,2.832,1.416,4.406,2.36,1.26,1.258,2.676,2.2,1.575,1.889,2.675,1.732a2.059,2.059,0,0,1,2.361,2.046,7.053,7.053,0,0,0,.629,3.3,7.44,7.44,0,0,1,1.574,1.574,23.882,23.882,0,0,0,1.416,2.832,19.475,19.475,0,0,1,1.416,1.889c.472.787.629-.158,1.1.157s1.1.157,1.1-.473a16.476,16.476,0,0,1,.157-1.731s2.2-.629,1.575-.945-2.519-2.2-2.361-2.832,0-1.888.786-1.73,1.575,1.573,3.306.314,3.777-1.888,3.147,0,.159,2.2,0,4.249.631,1.416,1.732,2.518a6.118,6.118,0,0,0,2.674,1.574,18.025,18.025,0,0,0,3.306.315c1.259.157,2.046-.473,3.148-.157s3.619-.158,4.091.157,2.361-.629,2.518.472.787-.157.315,2.36a29.718,29.718,0,0,1-1.1,4.249c-1.731,3.3-2.36,4.092-3.148,4.249a5.8,5.8,0,0,1-2.674.472,35.185,35.185,0,0,1-5.193-.472c-2.046-.473-5.823.472-7.4-.473s-3.777-.157-4.722-1.258-2.517-.945-3.147-1.574-.944-2.36-.944.158-1.417,2.675-1.731,3.934.471.629-1.26.472-2.2.787-4.721-1.1-3.777-1.888-5.035-2.676-2.518,1.416-3.777-1.1-2.99-.473-3.148-2.518a9.116,9.116,0,0,1,.157-3.147c.159-1.259,1.888-2.36,1.1-2.832s-.158-1.259-1.259-.787-2.675.629-3.934,1.1,2.832,0-3.3.473-7.869,1.1-7.869,1.1-.472-.315-1.259.315-1.888,1.574-2.99,1.1a3.964,3.964,0,0,0-2.675-.157c-.945.157-1.573-.787-2.675,0s-2.36,1.1-2.833.786a7.45,7.45,0,0,1-1.279-1.58Z" transform="translate(-94.055 -5.051)" fill="#b2b2b2"/>
      <path d="M491.874,279.479a18.743,18.743,0,0,1-2.2,4.249l-3.148,1.574a6.5,6.5,0,0,1-1.73,1.1,17.7,17.7,0,0,0-2.2.945s-1.416-.315-.945,1.1a8.555,8.555,0,0,1,.472,3.62,11.327,11.327,0,0,0-.157,2.676c0,1.258-.472,2.832-1.259,3.146s-1.574.63-1.416,1.732.158,4.406.158,4.406l2.046,3.148a3.31,3.31,0,0,1,1.888-.472,4.616,4.616,0,0,0,2.518-1.1s1.417.313,1.258-1.416.631-3.777.472-4.249,1.417-2.518,1.417-2.99,1.574-2.674,1.574-3.462,1.1-2.046,1.258-2.989a23.564,23.564,0,0,1,.629-3.777,4.184,4.184,0,0,0,.473-1.888v-1.888l-1.119-3.468Z" transform="translate(-144.182 -84.078)" fill="#b2b2b2"/>
      <path d="M672.254,299.707c-.472.629-.787,7.4-1.1,8.183s-.945,4.879-.629,5.822a16.064,16.064,0,0,1,.472,5.509c-.315,1.1.157,4.563-.631,4.406s-1.1.158-1.1.629,1.1,1.416,1.1,1.416a20.433,20.433,0,0,0,2.676-.157,17.108,17.108,0,0,1,3.62-.945c1.259,0,2.046-.945,3.147-.945s3.463-.786,4.092-.472,1.573-1.888,2.675-1.416,3.463-1.1,4.564-1.1,1.574-1.732,2.833-1.416,3.62-.629,4.721-.159,2.832-1.573,3.619,0,3.148,2.2,3.148,2.99-.159,2.518-.159,2.518l1.889-.158a22.774,22.774,0,0,1,3.462-1.888c.472,0,1.574-1.573,1.574-.786a14.254,14.254,0,0,1-1.259,3.3,2.181,2.181,0,0,0,.314,1.732s1.575.787.945,2.2.157,1.1,0,2.2,0,.629.628,1.258,1.733,1.733,2.676,1.575,1.258-1.1,2.046-.629,2.36.157,2.832.787-2.989,2.2,2.991-.472,6.608-3.306,7.4-4.25,1.733-1.888,2.361-2.518a8.04,8.04,0,0,1,2.046-1.888c1.888-1.416,1.888-.787,3.621-3.462a28.2,28.2,0,0,1,3.3-4.091,3.3,3.3,0,0,0,1.1-2.519c.157-1.888,1.416-3.619,1.416-4.248a11.288,11.288,0,0,0,.315-2.675c-.157-1.1.63-2.674-.315-4.248s.472-2.2-.945-2.834-2.36-.314-2.675-1.416-1.575-.945-2.046-3.934-2.36-3.306-2.36-3.306-1.888-.787-1.417-1.1.63-2.519.473-3.148a12.8,12.8,0,0,0-.629-2.989c-.472-.945-.787-2.2-1.259-3.306s-1.258-1.416-1.574-2.675a6.145,6.145,0,0,0-.944-2.046c-.159-.315-.474-1.888-.787-.158s-.945,5.035-.945,5.035-1.259,2.676-1.731,3.463-.944,2.832-1.73,2.674-1.261.788-1.888.629-1.574.158-2.046-.314a8.91,8.91,0,0,0-2.361-1.889c-.629-.157-1.1-1.415-1.574-1.415s-1.259-1.1-1.1-1.732.314-2.045.472-2.675a10.8,10.8,0,0,1,1.1-2.046s0-.944-.787-.944a21.821,21.821,0,0,1-2.676-.158c-1.73-.158-2.2-.315-2.833-.315s.631-.315-1.1.157-2.518,1.732-3.62,2.834-.157.786-1.1,1.1-.787-.787-1.417.945.315,2.2-.159,2.518-3.775-1.1-3.775-1.1.787-.158.157-.945-1.258-1.888-2.2-1.416a6.2,6.2,0,0,0-2.361,1.574c-.63.787-.63,1.416-1.1,2.045s-1.73.629-1.888,1.259-.157,2.2-.629,2.36-.629-.628-1.1-.786-.315-1.417-.629-.629-.629.629-1.1,1.888-.63,2.361-1.1,2.518,0,.315-1.417,1.1-1.73.787-3.775,1.731-1.573.945-2.99,1.1-1.732.63-2.676.787a3.853,3.853,0,0,0-2.518,1.258,4.863,4.863,0,0,1-2.36,1.417,3.186,3.186,0,0,0-1.23.776Z" transform="translate(-201.342 -83.059)" fill="#b2b2b2"/>
      <path d="M680.83,220.956c-.629.945-2.674,3.777-3.461,3.935s-1.575.945-2.2.787-2.046,0-2.518,2.046-1.259,3.148-1.733,2.99.787,2.99-1.888,1.732-1.73,1.1-2.046,1.732.472,2.36.629,2.99a9.861,9.861,0,0,0,1.259,2.674c.629.945,1.1,2.046,2.2,1.733a21.3,21.3,0,0,1,4.563,0,7.741,7.741,0,0,0,2.046.472c.787,0,.945-.315,1.416-.315s1.416-1.575,1.259-1.731-.628-.63.315-1.574,2.046-1.258,2.2-2.36-.315-1.1.157-1.732,1.573-.471,1.259-1.1.314-.472-.315-1.732-1.417-1.731-.787-3.3,1.261-1.888,1.1-2.832.787-1.259-.315-2.361a6.263,6.263,0,0,0-2.36-1.732l-.776-.322Z" transform="translate(-200.633 -66.47)" fill="#b2b2b2"/>
      <path d="M730.2,243.222c.631-.157,2.833-1.731,2.991,1.1s.313,2.045,1.259,3.619,1.572,2.047,2.674,1.26,2.36-.788,2.675-2.2.315-1.417,1.259-1.417,1.259-.157,1.733.473.784,0,2.832,1.1,3.776.786,5.037,1.888,1.888.945,3.619,1.574.944-.315,2.518,1.416.946,2.2,1.731,2.99,1.417-.63,1.1,1.258-2.518,0,.787,2.674,3.777,3.149,4.877,3.935,1.889,1.732.946,1.732-3.935,0-4.249-.473-1.731-.787-2.676-1.888-2.989-1.888-3.46-2.832a1.958,1.958,0,0,0-1.889-1.259c-.787,0-1.573.944-2.676,2.046s-.628-.629-2.046-.157a4.315,4.315,0,0,1-3.777-.787c-.787-.629-.629-1.573-1.887-1.1s-2.046.157-1.574-.787a3.681,3.681,0,0,0,.157-2.2s.473-1.574-.628-1.888-1.1-1.416-2.2-1.732a26.524,26.524,0,0,1-2.832-1.1,2.488,2.488,0,0,1-.63-.157,16.83,16.83,0,0,0-1.731-.472c-1.258-.315-2.2,0-2.832-.787a2.3,2.3,0,0,1-.315-1.888s2.518.315,0-1.574l-2.518-1.888a.346.346,0,0,0,.157-.473c-.161-.322,1.573-.007,1.573-.007Z" transform="translate(-219.153 -72.998)" fill="#b2b2b2"/>
      <path d="M629.447,224.78a2.582,2.582,0,0,0,2.046.63c1.259-.158,2.2,2.518,2.99,3.462a10.267,10.267,0,0,0,2.99,2.518c1.73,1.1,1.573-.945,3.934,2.36s1.259,1.259,2.36,3.3,1.731,3.148,2.36,3.622a5.3,5.3,0,0,1,1.26,2.2c.157.472,1.258,1.888,1.258,2.36a3.567,3.567,0,0,1-2.36,4.091,8.259,8.259,0,0,1-2.518-1.888,41.538,41.538,0,0,1-2.518-3.619c-1.1-1.889-2.36-3.935-2.99-4.879a32.24,32.24,0,0,1-2.046-2.833c-.472-.945-1.731-3.777-2.36-4.092s-.787-1.258-1.889-2.36-.944-2.046-1.416-2.675-1.573-2.047-1.573-2.047l.461-.154Z" transform="translate(-189.221 -67.623)" fill="#b2b2b2"/>
      <path d="M173.654,340.954c-1.1-.629-3.462-1.731-4.249-2.36a36.317,36.317,0,0,1-3.147-4.093l-1.732-3.3s-2.045-2.518-1.573-3.462,1.416-1.574,1.416-2.046.944-1.732.157-2.2-.787-.629-1.259-2.046-.472-2.676-1.1-2.99-1.1-2.36-1.731-2.518-1.259-1.259-1.259-1.259l-.945-12.747s-.315-5.822-.629-7.082.472-3.933-.315-6.295.158-5.193-.315-6.137.315-3.619-.157-6.137,1.888-5.665,0-6.609-.472-2.361-2.046-2.361-2.675-.787-4.091-1.888-4.092-3.148-4.879-3.936-3.3-2.832-4.091-3.462-1.574-3.3-2.2-4.092-.944-3.146-1.888-4.563-2.2-3.776-2.518-4.249-3.777-4.563-3.777-4.563l.315-2.518s2.36-1.416,2.046-1.888.158-.945-.945-1.888a2.335,2.335,0,0,1,0-3.462,16.9,16.9,0,0,0,2.36-3.306l2.36-3.933s1.889-2.047,1.889-3.463,2.675-2.36,1.1-3.619-.787-2.361-1.259-3.306-.157-1.573,1.259-2.518,3.934-4.406,3.934-4.406a20.431,20.431,0,0,1,2.36-.473c.472,0,1.259-5.037,2.676-1.732s1.888,1.574,1.417,3.934.629,1.889,1.258,1.26-.315.472.944-2.362.787-3.776,1.574-2.989a4.828,4.828,0,0,0,2.518,1.416c1.416.472,1.888.314,2.36,1.258s.315-.315,2.99.158,6.452-.945,5.98.629-1.416-.157.787,1.574,2.518,2.046,3.777,2.361,2.36.157,4.249,2.046,2.36,2.046,2.832,2.989,1.258.315,2.046,1.259,1.888.945,2.99.945,0-.945,1.731.315,2.99,1.415,3.777,3.933,2.36,2.361,1.1,4.879-3.776,3.62-2.675,3.462,3.148-1.1,3.777-.945.944-.472,1.888,0,1.1-.629.945.472-.158,0-.158,1.1-.315-1.1,1.574-.629.787-.945,2.99,1.1,2.2,1.417,2.99,2.518,1.574-.629,2.046-.157,1.888.157,3.3.472.472-.944,2.676.472,4.406.944,4.878,2.2,1.732.787,2.36,1.574.944-.315,1.574.787,2.518.786,2.2,1.887.471.473.157,2.046-1.417,4.093-2.36,4.721-.944,1.417-1.574,2.2-.472-.787-1.259,1.416-.629,2.518-1.258,4.563a10.167,10.167,0,0,0-.629,2.046c-.472,2.046-.157,3.3-.629,5.666s-.315,2.36-.629,4.091.787-.786-.63,2.832-1.573,3.462-2.045,5.036.157.315-1.574,1.259a7.764,7.764,0,0,1-2.833,1.259c-2.045.629-4.563,1.26-5.35,1.416s-3.934,1.1-2.99,2.989.945,2.2,0,4.565-2.36,3.148-2.36,4.248a13.757,13.757,0,0,1-.787,2.99c-.158.787,1.416-.787-.472,1.574s-2.046,1.731-2.676,3.148,0,.314-.629,1.416a4.257,4.257,0,0,1-2.2,1.573s.157.787-.473.473-.472.157-2.833-.473-2.675-2.2-2.99-1.1.157,1.732,1.574,2.833,3.777,1.416,3.147,2.518a11.267,11.267,0,0,1-1.1,1.731c-.473.63.629.157-.473.63s-1.731,2.518-2.2,2.518-.787.787-1.417.472-2.2-1.416-2.518-.787-.945-.787-.787,1.416.473,3.462-.315,3.935-2.676,0-2.676,0l-.315-.787-1.1.315s-.472,1.888.315,2.2.629.629,1.416,1.573a3.455,3.455,0,0,1,.315,2.676s0,.473-.787,1.259a4.791,4.791,0,0,0-1.259,1.888c-.158.472-1.1,2.518.315,2.36s2.518-.945,2.518,1.574.629,1.889-.157,3.62-1.417,1.888-1.574,3.462a4.309,4.309,0,0,0,.473,2.676c.315.945,1.1.472.315.945-.783.447-3.139-.021-3.139-.021Z" transform="translate(-39.506 -61.046)" fill="#b2b2b2"/>
      <path d="M93.548,160.4l-1.1-1.573a2.194,2.194,0,0,0-1.259-1.1c-.787-.157-2.518-2.2-2.518-2.2a2.345,2.345,0,0,1-.787-1.73c0-1.1-.63-2.832-.158-4.721A15.3,15.3,0,0,0,88.2,144.2c-.158-.629.787-.787-.315-1.416a11.472,11.472,0,0,0-4.721-.787,11.238,11.238,0,0,0-3.462.629c-.315.157,1.731-4.721,2.046-5.507a44.979,44.979,0,0,0,1.731-4.721c0-.473.472-.63-.472-1.258a3.929,3.929,0,0,0-3.462-.473c-.944.473-.787-.629-1.573,1.258s-1.574,3.935-2.518,4.249-2.832,1.259-2.832,1.259-2.36-.157-3.148-.315-4.091-1.888-4.721-2.99a11.863,11.863,0,0,1-.944-4.563c0-1.1,1.73-4.406,1.573-5.193s1.732-3.934,1.574-4.407a4.7,4.7,0,0,1,.787-2.675c.472-.629,2.833-1.416,3.462-2.046a7.214,7.214,0,0,1,2.832-1.731,11.652,11.652,0,0,1,2.833-.629c.787,0,2.832-1.731,3.147,0s1.732,1.1,2.518,1.258.945.945,2.2-1.1,2.518-2.676,2.518-2.2,2.046-.157,2.36.315.945-.315,2.046.629,2.675,1.1,2.518,1.573.629.472.629.945.63-1.1.63,1.73a11.959,11.959,0,0,0,.787,4.564s1.1,2.361,1.573,1.888,1.416-1.73,1.416-1.73,1.574-.945.473-4.249-.315-4.249-.629-5.351-.315-1.732,1.573-3.148,6.452-4.563,7.554-5.193,3.619-2.36,3.619-2.36a2.274,2.274,0,0,0,1.1-1.731c.157-1.258,3.147-3.462,3.3-4.091s2.2-2.2,2.2-2.2,2.2-1.26,2.045-2.046,2.833-2.2,3.3-2.2,2.99.786,2.99-.631,0-1.731,1.574-2.99,3.619-3.148,4.406-3.148,3.462-1.415,4.563-1.73,4.564-1.889,1.416,0-1.1.787-1.731,2.36-1.1,3.62,1.888,1.258,2.832-2.833,3.934-2.99.315.472,2.675-.315,2.518-1.1,2.518-1.1,1.1-.945.472-1.416.63-1.1-1.731-.158-2.2,1.1-3.777.629-3.934-.315-2.2-1.889,3.934-2.046,2.518-2.675-5.035.158-5.507.315-1.574-.157-2.518,0-.629-1.258,0-1.573a27.241,27.241,0,0,1,5.193-1.889c2.518-.629,8.656-.787,10.071-.787s3.3.315,4.406-.472,3.3-2.045,3.62-2.676a7.1,7.1,0,0,1,1.574-1.573s1.416-1.416.629-2.046-1.574-2.046-2.2-1.731-.157,2.2-1.416.157-1.1-2.36-1.731-2.832-1.259-.158-.787-2.36a9.647,9.647,0,0,0,.315-3.148s.472-1.888,0-2.045-.787-.629-1.573-.158-5.193,2.676-6.137,3.148-2.2-1.888-1.732-2.99.157-.473-.472-2.046-3.147-1.889-4.091-1.889-3.147-1.416-3.777-.472a28.128,28.128,0,0,1-4.564,4.249c-.629.315-1.573-2.675-2.045,2.2s1.731,6.3-.787,6.61a12.9,12.9,0,0,0-4.721,1.73s-2.045.158-2.045,1.416-.787,4.249-1.732,4.563a4.991,4.991,0,0,1-4.091-1.1c-.787-.945.157-4.406.157-4.406l1.416-1.416s-10.071-1.573-9.915-2.2-2.99-1.73-3.3-2.675a7.755,7.755,0,0,1-.157-3.777c.315-.787,4.563-4.563,6.766-5.35s5.98-2.518,7.082-2.833,2.99-.157,3.62-.944a5.118,5.118,0,0,0,.787-2.2s-.315-2.2.315-1.889,1.731.787,1.888,1.259.158,1.574,1.259.314a10.814,10.814,0,0,1,3.777-2.36c1.259-.63,3.147-.472,4.249-1.1s2.99-1.259,3.147-2.833-.472-1.1-1.259-1.259.315.158-2.36,1.416-1.888.315-3.777,1.258-2.046,1.1-2.2.315a4.85,4.85,0,0,1,.315-2.046s.158-.158-.944-.472-1.1.157-1.259-1.258.787-3.462-.787-2.833-2.99-.472-4.091,2.675-4.879,6.453-5.823,5.665-1.1-.945-1.888-.945-1.888-.944-3.3-1.1a48.508,48.508,0,0,0-6.766,0c-1.1.158-2.36-.629-3.306.315s-2.36,2.2-2.36,2.676-1.416-1.732-1.888-1.574-1.732-.629-3.147-.629-2.361-.787-2.832-.787.471-1.259,0-1.416-10.7-.472-10.7-.472-3.3-1.258-4.563-1.1-4.721.314-7.4.787-6.61,2.046-7.868,2.2-4.091.158-4.563-.629.157-.629-.473-.787S54.835,33.1,53.419,32s.63-2.046-2.2-2.046-4.563-.158-7.081,0-7.711,1.416-8.34,1.258-5.665.787-6.453.315-4.721,1.73-5.507,1.573a11.463,11.463,0,0,0-4.563.63c-.787.473-4.564,1.416-3.3,2.2a2.479,2.479,0,0,1,1.258,2.046c.158.472-1.258,1.573-1.258,1.573a9.674,9.674,0,0,1-2.046-.629c-1.731-.63-3.62-.944-4.407-.472s-2.2,1.417-1.888,2.046,2.518,2.046,2.833,1.573,1.1-1.416,2.046-1.258,2.361-.629,1.1.945-2.361,2.36-3.148,2.518-2.675.314-4.406.472-1.575-.629-3.148.945S.7,46.32.387,48.051s-.629,1.73,0,2.2-1.259.629.157,1.1,3.147.945,2.99,1.416,1.574-.629.629.629-1.573,2.36.315,1.1,2.99-.315,4.563-1.1,3.148-.944,4.091-1.573,1.416-1.573,2.833-2.046.472.158.629.945,0,.944.945.314.944-.157,2.2-.944,2.675-1.574,3.62-1.1a3.294,3.294,0,0,0,1.888.473c.629,0-.787-.158.629,0s-.629-.473,4.091.629,5.981.315,6.295,2.046.945-.158,1.731.944,1.259.158,1.731,2.046a23.536,23.536,0,0,1-.315,7.711c-.315.629-.472.629-.315,2.046s2.046,8.184,1.416,8.655a5.423,5.423,0,0,1-2.046.629L37.683,77a24.332,24.332,0,0,1-2.36,3.62c-1.1,1.258-2.518,2.833-3.3,3.933S30.6,87.547,29.5,88.649s-2.046.629-1.731,2.99,0,4.878.315,6.61a17.073,17.073,0,0,0,1.731,5.036c.629.944,1.1.944,2.2,1.73s2.518,1.732,2.36,2.518.157,5.666.157,5.666a8.892,8.892,0,0,1,1.1,3.3,9.112,9.112,0,0,0,1.259,3.462l.945,2.046s.472.158,1.1,1.416a6.7,6.7,0,0,1,.787,1.888c.158.631.158.473.158.631a21.182,21.182,0,0,0-.473-3.463c-.315-.787-.315-1.73-.629-2.675s.157-2.046-.787-3.462a8.611,8.611,0,0,1-1.416-2.99c-.472-1.416-1.1-2.99-.472-3.3s1.1-2.36,2.36,0,1.416,1.732,1.574,3.62a6.115,6.115,0,0,0,1.1,3.3c.472.787,1.573,3.463,2.2,4.563s0-.629,1.416,1.574a24.839,24.839,0,0,1,2.361,4.406c.787,1.731,1.259,1.731,1.731,2.99s.157.945-.158,2.36a5.877,5.877,0,0,0,.315,2.99s2.2.787,2.36,1.258,2.36,1.258,2.676,1.888,2.36,1.416,2.36,1.416,1.731,1.1,2.36,1.417a14.2,14.2,0,0,0,2.519.63s1.258.315,1.73.472a9.83,9.83,0,0,0,1.888.157s1.259-.944,1.731-.629,1.574-.63,2.046.157,1.416.787,1.888,1.417.944.629,1.731,1.416,1.574.629,2.36,1.258a3.188,3.188,0,0,0,2.36.629,4.372,4.372,0,0,1,1.574.158c.629.157.944-.473,1.573.315a17.806,17.806,0,0,1,1.573,2.045c.472.787,1.574.787,1.731,2.046s.472,1.1.472,2.2a2.094,2.094,0,0,0,1.1,1.889c.471.314,2.2,1.887,2.2,1.887l2.36.473,1.888,1.416,1.993.629Z" transform="translate(0 -8.596)" fill="#b2b2b2"/>
      <path d="M205.059,5.614l9.442-1.18s3.3,0,4.957-1.18,0-1.18,4.957-2.124,3.541-1.416,6.138-.945,3.3.473,6.137.945,3.541-.236,6.137.472a17.53,17.53,0,0,0,5.9.472h6.609c3.3,0,6.374-1.888,7.554-.708s1.888.708,5.9,1.18,5.665-.473,7.317,0,4.486-.236,7.79,0a37.1,37.1,0,0,0,6.137-.236c1.18,0,2.36-1.653,4.013-.236s3.777-.472,4.012,1.416,3.3.472.236,1.888-2.6,1.18-4.721,3.069,1.417,3.541-3.069,5.193-5.193-.945-6.374,1.888,0,3.541-.236,4.957-.708,1.652-2.125,2.832-1.416,0-4.721.708-5.665,1.416-7.081,1.416a18.312,18.312,0,0,0-5.43,1.652c-.945.473,1.653,1.18-3.3,2.6s-6.138,1.181-7.554,3.069-.945,2.125-1.888,3.306-3.777,5.9-5.193,4.721-2.125-.945-3.3-2.125a27.31,27.31,0,0,1-2.6-3.777c-.708-.945-.945-3.3-1.18-4.721s-2.361-4.721,0-4.249,3.777.236,4.485-.236a6.358,6.358,0,0,0,1.416-2.125,14.361,14.361,0,0,0-.945-4.013c-.708-1.416-.236-2.6-1.416-4.012a15.4,15.4,0,0,0-2.833-2.6c-1.652-1.416-1.18-2.125-3.777-2.36s-3.3-.945-4.249-.708-4.012-1.653-.708-1.888a32.261,32.261,0,0,1,6.374.236s4.249-1.888,2.833-2.124,2.124-2.361-1.18-1.653S232.44,6.088,231.5,6.323s-3.3.472-5.665,1.18-5.193.473-6.609,2.125,0,1.888-1.416,1.652,1.18-1.652-2.124,0-2.36,1.416-4.012.945a13.022,13.022,0,0,1-2.833-1.18s2.125-.236-.944-.472-3.069-.236-4.249-1.653-.472-1.416.236-1.888a4.306,4.306,0,0,0,1.175-1.417Z" transform="translate(-61.073 0)" fill="#b2b2b2"/>
      <path d="M197.04,23.223c-1.18,1.18-4.013,2.833-3.3,3.541s1.18,3.3,2.6,2.6-.236-3.069,5.193-1.18,4.957-.236,6.137,2.6,2.124,4.956,1.416,5.665a5.541,5.541,0,0,1-3.3,2.125c-2.36.708-3.3,1.653-1.652,2.832a49.659,49.659,0,0,0,6.137,3.069c1.416.708,5.665.945,3.541-1.416s.472-3.069.472-3.069,4.013,3.069,2.6-.472-2.361-3.541-1.417-3.541a8.32,8.32,0,0,1,2.832,1.18l.945-1.888-.945-3.069-3.069-3.069s2.6-2.36-.945-2.832-3.3-.472-5.193-1.653-2.124-1.652-5.665-.944a31.842,31.842,0,0,0-4.721,1.18l-1.643-1.654Z" transform="translate(-58.249 -6.986)" fill="#b2b2b2"/>
      <path d="M123.22,25.578c1.417-1.416,5.193-4.721,6.61-3.777s3.54-.708,5.193.708,3.541,3.069,4.957,3.541,3.069-1.18,4.485-.472,6.373-3.541,5.429-.236,1.18,4.249-1.417,4.485-5.429,2.125-6.61,1.416-2.125-1.416-4.013-.472-.944.944-3.069.472-2.6.472-3.068-.236-1.888-.472-1.653-2.6.944-1.888-.473-1.888-2.6.236-3.541-.472a4.771,4.771,0,0,0-2.825-.473Z" transform="translate(-37.069 -6.508)" fill="#b2b2b2"/>
    </g>
    <circle id="Africa/Nairobi" cx="10" cy="10" r="10" transform="translate(-452 184)" fill="#313131"/>
    <circle id="Asia/Singapore" cx="10" cy="10" r="10" transform="translate(-318 136)" fill="#313131"/>
    <circle id="Europe/Zurich" cx="10" cy="10" r="10" transform="translate(-501 92)" fill="#313131"/>
    <circle id="America/New_York" cx="10" cy="10" r="10" transform="translate(-645 104)" fill="#313131"/>
    <circle id="America/Los_Angeles" cx="10" cy="10" r="10" transform="translate(-733 116)" fill="#313131"/>
    <circle id="Australia/Sydney" cx="10" cy="10" r="10" transform="translate(-234 262)" fill="#313131"/>
  </g>
</svg>
